<svg width="47" height="12" viewBox="0 0 47 12" fill="none" xmlns="http://www.w3.org/2000/svg">
<path d="M40.0125 11.025C39.8125 10.825 39.7165 10.5834 39.7245 10.3C39.7325 10.0167 39.8369 9.77505 40.0375 9.57505L42.8625 6.75005H1.71253C1.42919 6.75005 1.19153 6.65405 0.999528 6.46205C0.807528 6.27005 0.711861 6.03272 0.712528 5.75005C0.712528 5.46672 0.808528 5.22905 1.00053 5.03705C1.19253 4.84505 1.42986 4.74938 1.71253 4.75005H42.8625L40.0125 1.90005C39.8125 1.70005 39.7125 1.46238 39.7125 1.18705C39.7125 0.911715 39.8125 0.674382 40.0125 0.475049C40.2125 0.275049 40.4502 0.175049 40.7255 0.175049C41.0009 0.175049 41.2382 0.275049 41.4375 0.475049L46.0125 5.05005C46.1125 5.15005 46.1835 5.25838 46.2255 5.37505C46.2675 5.49172 46.2882 5.61672 46.2875 5.75005C46.2875 5.88338 46.2665 6.00838 46.2245 6.12505C46.1825 6.24172 46.1119 6.35005 46.0125 6.45005L41.4125 11.05C41.2292 11.2334 41.0002 11.325 40.7255 11.325C40.4509 11.325 40.2132 11.225 40.0125 11.025Z" fill="#03031C" fill-opacity="0.25"/>
</svg>
